<svg width="48" height="48" viewBox="0 0 48 48" fill="none" xmlns="http://www.w3.org/2000/svg">
<g clip-path="url(#clip0_4_44)">
<path d="M19.2976 6.88195C15.1042 2.6907 6.89824 2.2047 1.0898 2.2047C0.488251 2.2047 0 2.69285 0 3.2944C0 9.10284 0.483858 17.3088 4.67726 21.5023C6.44708 23.2721 9.16061 24.0633 11.8501 24.0633C14.7729 24.0633 17.6695 23.1283 19.2976 21.5002C22.4209 18.3768 22.9942 10.5763 19.2976 6.88195ZM17.7567 19.9613C15.4246 22.2912 8.94922 22.6901 6.22047 19.9613C2.83562 16.5766 2.24928 9.7001 2.18604 4.39074C7.4954 4.45398 14.3719 5.04021 17.7566 8.42507C20.4855 11.1538 20.0866 17.6314 17.7567 19.9613Z" fill="#156963"/>
<path d="M46.9105 6.51575C41.102 6.51575 32.896 6.9996 28.7025 11.193C25.0061 14.8873 25.5792 22.6879 28.7025 25.8112C30.3307 27.4372 33.2251 28.3722 36.1479 28.3722C38.8374 28.3722 41.5488 27.5832 43.3229 25.8135C47.5141 21.6201 48.0002 13.4141 48.0002 7.60555C48.0003 7.004 47.512 6.51575 46.9105 6.51575ZM41.7776 24.2702C39.0489 26.999 32.5713 26.6001 30.2414 24.2702C27.9115 21.9403 27.5126 15.4627 30.2414 12.734C33.6262 9.34911 40.5026 8.76289 45.812 8.69965C45.7488 14.0111 45.1625 20.8876 41.7776 24.2702Z" fill="#156963"/>
<path d="M39.0396 15.9488C38.7825 15.4018 38.0457 15.2144 37.503 15.4671C29.1445 19.3968 25.0383 26.2493 23.1725 33.2936C20.8644 18.3157 14.1885 13.7496 11.3573 11.812C11.0042 11.5701 10.7295 11.3936 10.577 11.2432C10.152 10.8182 9.46105 10.8182 9.03604 11.2432C8.61103 11.6682 8.61103 12.3591 9.03604 12.7842C9.25182 12.9978 9.62452 13.2659 10.128 13.6102C13.3188 15.7919 21.795 21.5917 21.795 44.7057C21.795 45.3073 22.2833 45.7955 22.8848 45.7955C23.4864 45.7955 23.9746 45.3073 23.9746 44.7079C23.9746 35.3687 26.4833 23.0564 38.4315 17.4419C38.4315 17.4398 38.6081 17.3569 38.6081 17.3569C39.1508 17.0996 39.2968 16.4937 39.0396 15.9488Z" fill="#156963"/>
</g>
<defs>
<clipPath id="clip0_4_44">
<rect width="48" height="48" fill="white"/>
</clipPath>
</defs>
</svg>
